<!DOCTYPE svg PUBLIC "-//W3C//DTD SVG 1.1//EN" "http://www.w3.org/Graphics/SVG/1.1/DTD/svg11.dtd">

<!-- Uploaded to: SVG Repo, www.svgrepo.com, Transformed by: SVG Repo Mixer Tools -->
<svg fill="#000000" width="800px" height="800px" viewBox="0 0 24 24" id="suitecase" data-name="Flat Color" xmlns="http://www.w3.org/2000/svg" class="icon flat-color">

<g id="SVGRepo_bgCarrier" stroke-width="0"/>

<g id="SVGRepo_tracerCarrier" stroke-linecap="round" stroke-linejoin="round"/>

<g id="SVGRepo_iconCarrier">

<path id="primary" d="M8,8h8a1,1,0,0,0,1-1V4a2,2,0,0,0-2-2H9A2,2,0,0,0,7,4V7A1,1,0,0,0,8,8ZM9,4h6V6H9Zm12,7v9a2,2,0,0,1-2,2H5a2,2,0,0,1-2-2V11a1,1,0,0,1,1-1H20a1,1,0,0,1,1,1Z" style="fill: #000000;"/>

<path id="secondary" d="M20,6H4A2,2,0,0,0,2,8v.88A6.11,6.11,0,0,0,8.12,15h7.76A6.11,6.11,0,0,0,22,8.88V8A2,2,0,0,0,20,6Z" style="fill: currentColor;"/>

</g>

</svg>