<!DOCTYPE svg PUBLIC "-//W3C//DTD SVG 1.1//EN" "http://www.w3.org/Graphics/SVG/1.1/DTD/svg11.dtd">

<!-- Uploaded to: SVG Repo, www.svgrepo.com, Transformed by: SVG Repo Mixer Tools -->
<svg fill="#000000" width="800px" height="800px" viewBox="0 0 24 24" id="virtual-reality" data-name="Flat Color" xmlns="http://www.w3.org/2000/svg" class="icon flat-color">

<g id="SVGRepo_bgCarrier" stroke-width="0"/>

<g id="SVGRepo_tracerCarrier" stroke-linecap="round" stroke-linejoin="round"/>

<g id="SVGRepo_iconCarrier">

<path id="secondary" d="M5.62,12.21A1,1,0,0,1,6,13v4a1,1,0,0,1-1,1,1,1,0,0,1-.24,0l-2-.5a1,1,0,0,1-.76-1v-3a1,1,0,0,1,.76-1l2-.5A1,1,0,0,1,5.62,12.21Zm15.62.32-2-.5A1,1,0,0,0,18,13v4a1,1,0,0,0,1,1,1,1,0,0,0,.24,0l2-.5a1,1,0,0,0,.76-1v-3A1,1,0,0,0,21.24,12.53ZM14,4H10A1,1,0,0,0,9,5v6a1,1,0,0,0,1,1h4a1,1,0,0,0,1-1V5A1,1,0,0,0,14,4Z" style="fill: currentColor;"/>

<path id="primary" d="M18,10H6a2,2,0,0,0-2,2v6a2,2,0,0,0,2,2H7.75a3.5,3.5,0,0,0,2.8-1.4,1.49,1.49,0,0,1,1.2-.6h.5a1.49,1.49,0,0,1,1.2.6,3.5,3.5,0,0,0,2.8,1.4H18a2,2,0,0,0,2-2V12A2,2,0,0,0,18,10Z" style="fill: #000000;"/>

</g>

</svg>