<!DOCTYPE svg PUBLIC "-//W3C//DTD SVG 1.1//EN" "http://www.w3.org/Graphics/SVG/1.1/DTD/svg11.dtd">

<!-- Uploaded to: SVG Repo, www.svgrepo.com, Transformed by: SVG Repo Mixer Tools -->
<svg fill="#000000" width="800px" height="800px" viewBox="0 0 24 24" id="heartbeat" data-name="Flat Color" xmlns="http://www.w3.org/2000/svg" class="icon flat-color">

<g id="SVGRepo_bgCarrier" stroke-width="0"/>

<g id="SVGRepo_tracerCarrier" stroke-linecap="round" stroke-linejoin="round"/>

<g id="SVGRepo_iconCarrier">

<path id="primary" d="M20.27,3.91A5.73,5.73,0,0,0,15.81,2,6.49,6.49,0,0,0,12,3.79,6.49,6.49,0,0,0,8.19,2a5.71,5.71,0,0,0-4.46,1.9C1,6.61,1.79,11.5,4.15,14.67A33.19,33.19,0,0,0,11.4,21.8a1,1,0,0,0,1.2,0,33.19,33.19,0,0,0,7.25-7.13h0C22.21,11.5,23,6.61,20.27,3.91Z" style="fill: #000000;"/>

<path id="secondary" d="M13,15a1,1,0,0,1-.95-.68L11,11.16l-.05.16A1,1,0,0,1,10,12H7a1,1,0,0,1,0-2H9.28l.77-2.32a1,1,0,0,1,1.9,0L13,10.84l.05-.16A1,1,0,0,1,14,10h3a1,1,0,0,1,0,2H14.72L14,14.32A1,1,0,0,1,13,15Z" style="fill: currentColor;"/>

</g>

</svg>