<!DOCTYPE svg PUBLIC "-//W3C//DTD SVG 1.1//EN" "http://www.w3.org/Graphics/SVG/1.1/DTD/svg11.dtd">

<!-- Uploaded to: SVG Repo, www.svgrepo.com, Transformed by: SVG Repo Mixer Tools -->
<svg fill="#000000" width="800px" height="800px" viewBox="0 0 24 24" id="basketball-4" data-name="Flat Color" xmlns="http://www.w3.org/2000/svg" class="icon flat-color">

<g id="SVGRepo_bgCarrier" stroke-width="0"/>

<g id="SVGRepo_tracerCarrier" stroke-linecap="round" stroke-linejoin="round"/>

<g id="SVGRepo_iconCarrier">

<circle id="primary" cx="12" cy="12" r="10" style="fill: #000000;"/>

<path id="secondary" d="M21.81,13.93a9.26,9.26,0,0,1-.7,2.18A20.16,20.16,0,0,0,16,12c0,2.47.86,5.81,2.5,7.61a10.66,10.66,0,0,1-1.66,1.15C14.89,18.45,14,14.67,14,12a7.63,7.63,0,0,1,0-.95,16.15,16.15,0,0,0-3-.84Q11,10.84,11,11.5c0,2.43.47,7.52,2.2,10.42A7.89,7.89,0,0,1,12,22a9.28,9.28,0,0,1-1.06-.06C9.06,17.9,9,12.22,9,11.5c0-.51,0-1,.06-1.49-.38,0-.76,0-1.13,0C7.67,12.39,6.65,15.88,4,18A9.42,9.42,0,0,1,3,16.3a10.26,10.26,0,0,0,2.89-5.89A13.28,13.28,0,0,0,2,12.19V12a9.72,9.72,0,0,1,.27-2.3A14,14,0,0,1,6,8.3a4.28,4.28,0,0,0-1.41-3A10,10,0,0,1,6.05,4,6.14,6.14,0,0,1,8,8,12.71,12.71,0,0,1,9.34,8a12.4,12.4,0,0,1,2.88-6,9.93,9.93,0,0,1,2.57.4,9.49,9.49,0,0,0-3.44,5.82,17.87,17.87,0,0,1,3.09.85,7.9,7.9,0,0,1,3.83-4.86,10.88,10.88,0,0,1,1.55,1.56c-1.57.37-3,2.08-3.54,4.1A21.93,21.93,0,0,1,21.81,13.93Z" style="fill: currentColor;"/>

</g>

</svg>