<!DOCTYPE svg PUBLIC "-//W3C//DTD SVG 1.1//EN" "http://www.w3.org/Graphics/SVG/1.1/DTD/svg11.dtd">

<!-- Uploaded to: SVG Repo, www.svgrepo.com, Transformed by: SVG Repo Mixer Tools -->
<svg fill="#000000" width="800px" height="800px" viewBox="0 0 24 24" id="rocket-right" data-name="Flat Color" xmlns="http://www.w3.org/2000/svg" class="icon flat-color">

<g id="SVGRepo_bgCarrier" stroke-width="0"/>

<g id="SVGRepo_tracerCarrier" stroke-linecap="round" stroke-linejoin="round"/>

<g id="SVGRepo_iconCarrier">

<path id="secondary" d="M10.78,18.88,9.37,20.29a2,2,0,0,1-2.83,0L3.71,17.46a2,2,0,0,1,0-2.83l1.41-1.41a1,1,0,0,1,.71-.3,1,1,0,0,1,.71.3l4.24,4.24A1,1,0,0,1,10.78,18.88ZM10.74,8a1,1,0,0,0-.63-.76A7.16,7.16,0,0,0,2.29,9a1,1,0,0,0,0,1.42l2.82,2.82a1.05,1.05,0,0,0,.71.29h.07a1,1,0,0,0,.73-.39A28.75,28.75,0,0,1,10.43,9,1,1,0,0,0,10.74,8Zm6.06,5.76a1,1,0,0,0-.75-.62,1,1,0,0,0-.93.32A30.25,30.25,0,0,1,11,17.34a1,1,0,0,0-.39.73,1,1,0,0,0,.29.77l2.87,2.87a1,1,0,0,0,1.42,0A7.18,7.18,0,0,0,16.8,13.79Z" style="fill: currentColor;"/>

<path id="primary" d="M21.42,2.58A2,2,0,0,0,19.69,2c-2.58.42-9.21,2.29-15.29,10.7A1,1,0,0,0,4.51,14L10,19.49a1,1,0,0,0,.7.3,1.06,1.06,0,0,0,.59-.19C19.69,13.52,21.56,6.88,22,4.31A2,2,0,0,0,21.42,2.58Z" style="fill: #000000;"/>

</g>

</svg>